<svg width="1977" height="2027" viewBox="0 0 1977 2027" fill="none" xmlns="http://www.w3.org/2000/svg">
<rect x="719.331" y="590.033" width="139.657" height="139.657" rx="22.3451" fill="#3B978A"/>
<rect x="1374.98" y="590.033" width="139.657" height="139.657" rx="22.3451" fill="#3B978A"/>
<rect x="1025.85" y="322" width="211.132" height="211.132" rx="33.7811" fill="#3C7985"/>
<rect x="1337.87" y="926.792" width="221.299" height="221.299" rx="35.4078" fill="#F8D52A"/>
<path d="M1113.47 854.135C878.827 1034.38 901.434 1242.32 911.059 1420.9L974.982 1414.47L971.418 1334.68C987.685 1333.12 1003.99 1330.12 1014.46 1325.23C1334.4 1176.04 1191.08 640.89 1191.08 640.89C1189.12 712.625 988.914 814.84 857.05 911.743C725.185 1008.65 724.659 1159.39 751.785 1217.56C778.912 1275.73 853.548 1302.89 853.548 1302.89C822.614 989.77 1113.47 854.135 1113.47 854.135Z" fill="#81B93A"/>
<path d="M732.286 1610.21C732.2 1604.41 733.365 1598.65 735.701 1593.33C739.631 1584.49 746.89 1577.54 755.905 1574.01C764.92 1570.48 774.962 1570.65 783.855 1574.48C887.532 1620.01 1004.58 1624.69 1111.56 1587.59C1218.55 1550.49 1307.57 1474.34 1360.79 1374.4L1269.82 1415.37C1263.03 1418.05 1255.6 1418.66 1248.47 1417.1C1241.34 1415.55 1234.83 1411.91 1229.77 1406.65C1224.72 1401.39 1221.34 1394.74 1220.07 1387.56C1218.8 1380.37 1219.7 1372.97 1222.65 1366.29C1226.33 1358.83 1232.42 1352.83 1239.95 1349.27L1457.02 1252.16L1513.33 1483.1C1515.68 1488.03 1516.9 1493.42 1516.9 1498.88C1516.9 1504.35 1515.69 1509.74 1513.35 1514.67C1511.01 1519.61 1507.6 1523.96 1503.37 1527.41C1499.14 1530.86 1494.19 1533.32 1488.88 1534.63C1483.58 1535.93 1478.05 1536.03 1472.71 1534.93C1467.36 1533.83 1462.32 1531.55 1457.96 1528.26C1453.6 1524.97 1450.03 1520.75 1447.51 1515.91C1444.98 1511.07 1443.57 1505.72 1443.37 1500.27L1422.61 1414.31C1359.88 1528.96 1256.45 1615.93 1132.74 1658.05C1009.02 1700.16 874.013 1694.36 754.364 1641.8C748.122 1639.09 742.754 1634.71 738.856 1629.13C734.959 1623.55 732.684 1617 732.286 1610.21Z" fill="#2C7B49"/>
<path d="M662.994 817.073C617.396 856.52 580.365 904.891 554.183 959.203C522.203 1025.29 506.787 1098.17 509.267 1171.54C511.747 1244.92 532.049 1316.59 568.419 1380.37L586.973 1284.38C590.125 1276.42 595.959 1269.8 603.469 1265.67C610.979 1261.55 619.693 1260.18 628.108 1261.79C636.522 1263.41 644.109 1267.91 649.558 1274.52C655.007 1281.13 657.976 1289.44 657.954 1298.01L623.301 1474.67L611.749 1530.97L391.164 1444.05C382.462 1440.39 375.499 1433.53 371.717 1424.88C367.935 1416.23 367.623 1406.46 370.845 1397.59L374.105 1392.25C378.483 1384.78 385.356 1379.1 393.514 1376.2C401.672 1373.3 410.591 1373.37 418.702 1376.4L502.082 1409.23C461.584 1335.74 439.256 1253.63 436.963 1169.76C434.67 1085.88 452.479 1002.67 488.901 927.079C519.381 863.898 562.537 807.665 615.684 761.88C623.122 756.459 632.321 754.024 641.466 755.055C650.612 756.086 659.038 760.508 665.082 767.448C671.127 774.388 674.349 783.342 674.114 792.542C673.88 801.742 670.204 810.52 663.813 817.143L662.994 817.073Z" fill="#2C7B49"/>
</svg>
